# xmcd
#
# Track frame offsets:
#	150
#	13578
#	28464
#	46874
#	59105
#	71726
#	89309
#	101009
#	115877
#	129832
#	145697
#	163077
#	178558
#	196497
#	210697
#	224307
#	237347
#	250657
#	267423
#	282034
#
# Disc length: 3999 seconds
#
# Revision: 1
# Processed by: cddbd v1.5.2PL0 Copyright (c) Steve Scherf et al.
# Submitted via: audiograbber 1.83.01
#
DISCID=2c0f9d14
DTITLE=TSP Country - TSP Country 015
DYEAR=2006
DGENRE=Country
TTITLE0=I Left Something Turned On At Home  - Poul Taylor
TTITLE1=Laying Low  - Bird and Tines
TTITLE2=If I´d Never Loved You  - Laurelyn Carter
TTITLE3=Another Place Another Time - Roy Harris
TTITLE4=I Am A Simple Man  - Keith Bradford
TTITLE5=Faded Love Again - Jim Cook and The Taylormacs
TTITLE6=The Tracks You Left On Me - Ed Bruce
TTITLE7=Country Loving Body  - Bruce Stephens
TTITLE8=The Thought Of Losing You  - Bill Workman
TTITLE9=Read My Lipstick  - Kristi Warner
TTITLE10=When Two Hearts Beats As One  - Derek Mccorkell
TTITLE11=Am I Still In Your Heart  - Trio Grande Band
TTITLE12=Out Of Your Mind  - Chris Vaughn
TTITLE13=Just Call An Jesus  - Sherlock B Reid
TTITLE14=John Deere Dreams  - Jim Cook and The Taylormacs
TTITLE15=I´ll Leave The Lights On  - Roy Harris
TTITLE16=Tall, Dark And Lonesome  - Kristia Warner
TTITLE17=The Other Side  - Derek Mccorkell
TTITLE18=I Wonder What You´re Doing Tonnight  - Bill Workman 
TTITLE19=Second Chances  - Brett Clark
EXTD=
EXTT0=
EXTT1=
EXTT2=
EXTT3=
EXTT4=
EXTT5=
EXTT6=
EXTT7=
EXTT8=
EXTT9=
EXTT10=
EXTT11=
EXTT12=
EXTT13=
EXTT14=
EXTT15=
EXTT16=
EXTT17=
EXTT18=
EXTT19=
PLAYORDER=
